<svg width="349" height="121" viewBox="0 0 349 121" fill="none" xmlns="http://www.w3.org/2000/svg">
<path d="M37.0435 23.1511C39.0469 29.163 42.9473 34.3614 48.1565 37.9685C55.9958 43.3954 61.9891 51.0865 65.337 60.014L65.6626 60.883C68.1708 67.5724 69.4565 74.6585 69.4565 81.8033C69.4565 88.6224 63.9278 94.1511 57.1087 94.1511H7.71737C4.30783 94.1511 1.54346 91.3868 1.54346 87.9772C1.54346 84.5677 4.30783 81.8033 7.71737 81.8033H13.8913C15.5968 81.8033 16.9782 83.1847 16.9782 84.8903C16.9782 86.5958 15.5968 87.9772 13.8913 87.9772H12.3478H24.6956L25.6078 72.4745C26.0246 65.39 25.009 58.293 22.6227 51.6098C19.9247 44.056 18.9832 35.9867 19.8692 28.0131L20.0652 26.2381L20.1146 25.7642" fill="#8D9CB0"/>
<path d="M20.1146 25.7642L20.0652 26.2381L19.8676 28.0131C19.775 28.8435 19.7148 29.6754 19.6624 30.5058C21.9575 32.6929 24.7882 34.0033 27.8629 34.0033C32.2818 34.0033 36.2069 31.3208 38.7351 27.1642C38.0791 25.8738 37.505 24.5372 37.0435 23.1511" fill="#4D5D7A"/>
<path d="M29.3696 87.77L35.56 42.9914L38.6177 43.4141L32.4273 88.1927L29.3696 87.77Z" fill="#4D5D7A"/>
<path d="M43.2575 88.8308L41.7063 87.7966C36.8536 84.5615 33.9565 79.1485 33.9565 73.3142C33.9565 67.4798 36.8536 62.0668 41.7063 58.8317L43.9042 57.3669L45.6159 59.9353L43.418 61.4001C39.4266 64.061 37.0434 68.5155 37.0434 73.3142C37.0434 78.1128 39.4266 82.5673 43.4195 85.2283L44.9707 86.2624L43.2575 88.8308Z" fill="#4D5D7A"/>
<path d="M36.2038 89.5207H6.17389V86.4337H36.2038C44.7701 86.4337 53.1774 84.9088 61.1958 81.9005L62.2809 84.7914C53.9152 87.9293 45.1405 89.5207 36.2038 89.5207Z" fill="#4D5D7A"/>
<path d="M18.5495 15.4569L18.5217 15.4337C16.5445 13.4565 15.4348 10.777 15.4348 7.98181V1.54242L23.1521 10.8033H32.413L40.1304 1.54242V7.98181C40.1304 10.777 39.0206 13.4581 37.0434 15.4337C35.0663 17.4094 37.0157 15.4569 37.0157 15.4569C38.0282 16.6994 38.5869 18.2583 38.5869 19.8743C38.5869 21.9503 37.6655 23.9198 36.0695 25.2487L30.5114 29.8807C29.7459 30.5181 28.7797 30.8685 27.7826 30.8685C26.7855 30.8685 25.8193 30.5181 25.0537 29.8807L19.4956 25.2487C17.8997 23.9198 16.9782 21.9503 16.9782 19.8743C16.9782 18.2506 17.5431 16.6855 18.5618 15.4414L18.5495 15.4569Z" fill="#8D9CB0"/>
<path d="M66.7832 59.4722C63.3088 50.2067 57.1704 42.3319 49.0363 36.6998C44.5386 33.5866 41.0395 29.1275 39.033 24.0463C39.7384 22.7869 40.1304 21.3591 40.1304 19.8743C40.1304 18.3494 39.7013 16.9016 38.9558 15.6159C40.7154 13.4658 41.6739 10.7971 41.6739 7.98027V1.54242C41.6739 0.892616 41.2664 0.312268 40.6568 0.0915508C40.0455 -0.127623 39.3618 0.0560509 38.945 0.554594L31.6892 9.25981H23.8761L16.6217 0.554594C16.2034 0.0545075 15.5197 -0.127623 14.91 0.0915508C14.2988 0.312268 13.8913 0.892616 13.8913 1.54242V7.98027C13.8913 10.7956 14.8498 13.4642 16.6094 15.6159C15.8639 16.9016 15.4348 18.3494 15.4348 19.8743C15.4348 22.4087 16.5492 24.7934 18.4909 26.4187L18.3319 27.8417C17.4259 35.999 18.406 44.3971 21.1673 52.1268C23.4964 58.648 24.4718 65.4625 24.0659 72.3819L23.2402 86.4337H18.2362C18.4106 85.9491 18.5217 85.4335 18.5217 84.8902C18.5217 82.3373 16.4442 80.2598 13.8913 80.2598H7.71739C3.46202 80.2598 0 83.7218 0 87.9772C0 92.2326 3.46202 95.6946 7.71739 95.6946H57.1087C64.769 95.6946 71 89.462 71 81.8033C71 74.4502 69.6896 67.2298 67.1089 60.3412L66.7832 59.4722ZM16.9783 5.80551L21.9652 11.7911C22.26 12.143 22.6938 12.3468 23.1522 12.3468H32.413C32.8715 12.3468 33.3052 12.143 33.6 11.7911L38.587 5.80551V7.98027C38.587 9.85868 38.0066 11.646 36.9447 13.1509L36.5912 12.7975L34.4088 14.9815L35.4475 16.0187C36.477 17.0497 37.0435 18.4188 37.0435 19.8743C37.0435 21.4965 36.3288 23.023 35.0817 24.0618L29.5252 28.6922C28.5482 29.5056 27.0155 29.5056 26.0416 28.6922L20.482 24.0602C19.2364 23.023 18.5217 21.498 18.5217 19.8743C18.5217 18.4188 19.0882 17.0482 20.1177 16.0187L21.1565 14.9815L18.974 12.7975L18.6205 13.1509C17.5586 11.6476 16.9783 9.86022 16.9783 7.98027V5.80551ZM57.1087 92.6076H7.71739C5.16448 92.6076 3.08696 90.5301 3.08696 87.9772C3.08696 85.4243 5.16448 83.3468 7.71739 83.3468H13.8913C14.7433 83.3468 15.4348 84.0398 15.4348 84.8902C15.4348 85.7407 14.7433 86.4337 13.8913 86.4337H12.3478H6.17391V89.5207H12.3478H13.8913H36.2038C45.1406 89.5207 53.9152 87.9293 62.2824 84.793L61.1974 81.9021C55.7813 83.9333 50.1831 85.2715 44.483 85.9367L43.4196 85.2283C39.4266 82.5673 37.0435 78.1128 37.0435 73.3142C37.0435 68.5155 39.4266 64.061 43.4196 61.4L45.6175 59.9353L43.9058 57.3669L41.7079 58.8317C38.8602 60.7302 36.7101 63.3896 35.3997 66.4333L38.5731 43.4262L35.517 43.0049L29.5252 86.4337H26.3317L27.1482 72.5656C27.5789 65.231 26.5447 58.0044 24.0752 51.0912C21.5423 43.9958 20.6116 36.3046 21.3525 28.8049L24.0675 31.0676C25.1093 31.9335 26.4274 32.412 27.7826 32.412C29.1378 32.412 30.4559 31.9335 31.5008 31.0661L36.7903 26.6564C39.0886 31.685 42.7219 36.0855 47.2767 39.2388C54.8938 44.5113 60.6371 51.883 63.8907 60.5573L64.2164 61.4263C66.669 67.9645 67.913 74.8221 67.913 81.8033C67.913 87.7611 63.065 92.6076 57.1087 92.6076V92.6076ZM34.1248 75.6649C34.685 79.7952 36.7039 83.5737 39.8264 86.3349C38.6225 86.3951 37.4155 86.4337 36.2038 86.4337H32.6399L34.1248 75.6649Z" fill="white"/>
<path d="M97.3203 78.2422L97.9766 82.7422L98.9375 78.6875L105.688 54.875H109.484L116.07 78.6875L117.008 82.8125L117.734 78.2188L123.031 54.875H127.555L119.281 89H115.18L108.148 64.1328L107.609 61.5312L107.07 64.1328L99.7812 89H95.6797L87.4297 54.875H91.9297L97.3203 78.2422ZM158.82 73.0391C158.82 76.3828 158.258 79.3047 157.133 81.8047C156.008 84.2891 154.414 86.1875 152.352 87.5C150.289 88.8125 147.883 89.4688 145.133 89.4688C142.445 89.4688 140.062 88.8125 137.984 87.5C135.906 86.1719 134.289 84.2891 133.133 81.8516C131.992 79.3984 131.406 76.5625 131.375 73.3438V70.8828C131.375 67.6016 131.945 64.7031 133.086 62.1875C134.227 59.6719 135.836 57.75 137.914 56.4219C140.008 55.0781 142.398 54.4062 145.086 54.4062C147.82 54.4062 150.227 55.0703 152.305 56.3984C154.398 57.7109 156.008 59.625 157.133 62.1406C158.258 64.6406 158.82 67.5547 158.82 70.8828V73.0391ZM154.344 70.8359C154.344 66.7891 153.531 63.6875 151.906 61.5312C150.281 59.3594 148.008 58.2734 145.086 58.2734C142.242 58.2734 140 59.3594 138.359 61.5312C136.734 63.6875 135.898 66.6875 135.852 70.5312V73.0391C135.852 76.9609 136.672 80.0469 138.312 82.2969C139.969 84.5312 142.242 85.6484 145.133 85.6484C148.039 85.6484 150.289 84.5938 151.883 82.4844C153.477 80.3594 154.297 77.3203 154.344 73.3672V70.8359ZM178.086 75.1953H170.07V89H165.547V54.875H176.844C180.688 54.875 183.641 55.75 185.703 57.5C187.781 59.25 188.82 61.7969 188.82 65.1406C188.82 67.2656 188.242 69.1172 187.086 70.6953C185.945 72.2734 184.352 73.4531 182.305 74.2344L190.32 88.7188V89H185.492L178.086 75.1953ZM170.07 71.5156H176.984C179.219 71.5156 180.992 70.9375 182.305 69.7812C183.633 68.625 184.297 67.0781 184.297 65.1406C184.297 63.0312 183.664 61.4141 182.398 60.2891C181.148 59.1641 179.336 58.5938 176.961 58.5781H170.07V71.5156ZM199.672 85.3203H215.844V89H195.148V54.875H199.672V85.3203ZM220.977 89V54.875H230.609C233.578 54.875 236.203 55.5312 238.484 56.8438C240.766 58.1562 242.523 60.0234 243.758 62.4453C245.008 64.8672 245.641 67.6484 245.656 70.7891V72.9688C245.656 76.1875 245.031 79.0078 243.781 81.4297C242.547 83.8516 240.773 85.7109 238.461 87.0078C236.164 88.3047 233.484 88.9688 230.422 89H220.977ZM225.477 58.5781V85.3203H230.211C233.68 85.3203 236.375 84.2422 238.297 82.0859C240.234 79.9297 241.203 76.8594 241.203 72.875V70.8828C241.203 67.0078 240.289 64 238.461 61.8594C236.648 59.7031 234.07 58.6094 230.727 58.5781H225.477ZM277.578 78.1719C277.156 81.7812 275.82 84.5703 273.57 86.5391C271.336 88.4922 268.359 89.4688 264.641 89.4688C260.609 89.4688 257.375 88.0234 254.938 85.1328C252.516 82.2422 251.305 78.375 251.305 73.5312V70.25C251.305 67.0781 251.867 64.2891 252.992 61.8828C254.133 59.4766 255.742 57.6328 257.82 56.3516C259.898 55.0547 262.305 54.4062 265.039 54.4062C268.664 54.4062 271.57 55.4219 273.758 57.4531C275.945 59.4688 277.219 62.2656 277.578 65.8438H273.055C272.664 63.125 271.812 61.1562 270.5 59.9375C269.203 58.7188 267.383 58.1094 265.039 58.1094C262.164 58.1094 259.906 59.1719 258.266 61.2969C256.641 63.4219 255.828 66.4453 255.828 70.3672V73.6719C255.828 77.375 256.602 80.3203 258.148 82.5078C259.695 84.6953 261.859 85.7891 264.641 85.7891C267.141 85.7891 269.055 85.2266 270.383 84.1016C271.727 82.9609 272.617 80.9844 273.055 78.1719H277.578ZM302.586 80.0938H288.289L285.078 89H280.438L293.469 54.875H297.406L310.461 89H305.844L302.586 80.0938ZM289.648 76.3906H301.25L295.438 60.4297L289.648 76.3906ZM335.586 58.5781H324.617V89H320.141V58.5781H309.195V54.875H335.586V58.5781Z" fill="white"/>
<path d="M97.3203 78.2422L98.3098 78.0979L98.3039 78.0573L98.2947 78.0174L97.3203 78.2422ZM97.9766 82.7422L96.987 82.8865L98.9496 82.9728L97.9766 82.7422ZM98.9375 78.6875L97.9754 78.4148L97.9695 78.4357L97.9645 78.4569L98.9375 78.6875ZM105.688 54.875V53.875H104.932L104.725 54.6023L105.688 54.875ZM109.484 54.875L110.448 54.6084L110.245 53.875H109.484V54.875ZM116.07 78.6875L117.045 78.4659L117.04 78.4433L117.034 78.4209L116.07 78.6875ZM117.008 82.8125L116.033 83.0341L117.996 82.9687L117.008 82.8125ZM117.734 78.2188L116.759 77.9975L116.752 78.0298L116.747 78.0625L117.734 78.2188ZM123.031 54.875V53.875H122.233L122.056 54.6537L123.031 54.875ZM127.555 54.875L128.527 55.1106L128.826 53.875H127.555V54.875ZM119.281 89V90H120.068L120.253 89.2356L119.281 89ZM115.18 89L114.217 89.2721L114.423 90H115.18V89ZM108.148 64.1328L107.169 64.3357L107.176 64.3706L107.186 64.4049L108.148 64.1328ZM107.609 61.5312L108.589 61.3284H106.63L107.609 61.5312ZM107.07 64.1328L108.03 64.4141L108.041 64.3753L108.05 64.3357L107.07 64.1328ZM99.7812 89V90H100.53L100.741 89.2813L99.7812 89ZM95.6797 89L94.7077 89.235L94.8926 90H95.6797V89ZM87.4297 54.875V53.875H86.1591L86.4577 55.11L87.4297 54.875ZM91.9297 54.875L92.9041 54.6502L92.7253 53.875H91.9297V54.875ZM96.3308 78.3865L96.987 82.8865L98.9661 82.5979L98.3098 78.0979L96.3308 78.3865ZM98.9496 82.9728L99.9105 78.9181L97.9645 78.4569L97.0035 82.5116L98.9496 82.9728ZM99.8996 78.9602L106.65 55.1477L104.725 54.6023L97.9754 78.4148L99.8996 78.9602ZM105.688 55.875H109.484V53.875H105.688V55.875ZM108.521 55.1416L115.106 78.9541L117.034 78.4209L110.448 54.6084L108.521 55.1416ZM115.095 78.9091L116.033 83.0341L117.983 82.5909L117.045 78.4659L115.095 78.9091ZM117.996 82.9687L118.722 78.375L116.747 78.0625L116.02 82.6563L117.996 82.9687ZM118.71 78.44L124.006 55.0963L122.056 54.6537L116.759 77.9975L118.71 78.44ZM123.031 55.875H127.555V53.875H123.031V55.875ZM126.583 54.6394L118.309 88.7644L120.253 89.2356L128.527 55.1106L126.583 54.6394ZM119.281 88H115.18V90H119.281V88ZM116.142 88.7279L109.111 63.8607L107.186 64.4049L114.217 89.2721L116.142 88.7279ZM109.128 63.9299L108.589 61.3284L106.63 61.7341L107.169 64.3357L109.128 63.9299ZM106.63 61.3284L106.091 63.9299L108.05 64.3357L108.589 61.7341L106.63 61.3284ZM106.111 63.8515L98.8216 88.7187L100.741 89.2813L108.03 64.4141L106.111 63.8515ZM99.7812 88H95.6797V90H99.7812V88ZM96.6517 88.765L88.4017 54.64L86.4577 55.11L94.7077 89.235L96.6517 88.765ZM87.4297 55.875H91.9297V53.875H87.4297V55.875ZM90.9553 55.0998L96.3459 78.467L98.2947 78.0174L92.9041 54.6502L90.9553 55.0998ZM157.133 81.8047L158.044 82.2172L158.045 82.2151L157.133 81.8047ZM137.984 87.5L137.446 88.3426L137.45 88.3455L137.984 87.5ZM133.133 81.8516L132.226 82.2732L132.229 82.2801L133.133 81.8516ZM131.375 73.3438H130.375L130.375 73.3535L131.375 73.3438ZM137.914 56.4219L138.453 57.2645L138.454 57.2635L137.914 56.4219ZM152.305 56.3984L151.766 57.2411L151.774 57.2457L152.305 56.3984ZM157.133 62.1406L156.22 62.5489L156.221 62.551L157.133 62.1406ZM151.906 61.5312L151.106 62.1303L151.108 62.1331L151.906 61.5312ZM138.359 61.5312L137.561 60.9285L137.561 60.9294L138.359 61.5312ZM135.852 70.5312L134.852 70.5191V70.5312H135.852ZM138.312 82.2969L137.504 82.8861L137.509 82.8924L138.312 82.2969ZM151.883 82.4844L152.681 83.0872L152.683 83.0844L151.883 82.4844ZM154.344 73.3672L155.344 73.379V73.3672H154.344ZM157.82 73.0391C157.82 76.2717 157.277 79.0484 156.221 81.3943L158.045 82.2151C159.239 79.5609 159.82 76.4939 159.82 73.0391H157.82ZM156.222 81.3922C155.167 83.7207 153.695 85.46 151.815 86.6563L152.888 88.3437C155.133 86.915 156.848 84.8574 158.044 82.2172L156.222 81.3922ZM151.815 86.6563C149.932 87.8544 147.717 88.4688 145.133 88.4688V90.4688C148.049 90.4688 150.646 89.7706 152.888 88.3437L151.815 86.6563ZM145.133 88.4688C142.616 88.4688 140.422 87.8567 138.518 86.6545L137.45 88.3455C139.703 89.7683 142.275 90.4688 145.133 90.4688V88.4688ZM138.523 86.6574C136.618 85.4397 135.12 83.7075 134.036 81.423L132.229 82.2801C133.458 84.8707 135.195 86.9041 137.446 88.3426L138.523 86.6574ZM134.04 81.4299C132.969 79.1281 132.405 76.4371 132.375 73.334L130.375 73.3535C130.407 76.6879 131.015 79.6688 132.226 82.2732L134.04 81.4299ZM132.375 73.3438V70.8828H130.375V73.3438H132.375ZM132.375 70.8828C132.375 67.7176 132.925 64.9643 133.997 62.6005L132.175 61.7745C130.966 64.442 130.375 67.4855 130.375 70.8828H132.375ZM133.997 62.6005C135.067 60.2392 136.557 58.4762 138.453 57.2645L137.376 55.5793C135.115 57.0238 133.386 59.1046 132.175 61.7745L133.997 62.6005ZM138.454 57.2635C140.374 56.0315 142.574 55.4062 145.086 55.4062V53.4062C142.223 53.4062 139.642 54.1248 137.374 55.5803L138.454 57.2635ZM145.086 55.4062C147.651 55.4062 149.866 56.0267 151.766 57.2411L152.843 55.5558C150.587 54.1139 147.99 53.4062 145.086 53.4062V55.4062ZM151.774 57.2457C153.68 58.441 155.166 60.1926 156.22 62.5489L158.046 61.7324C156.849 59.0574 155.117 56.9808 152.836 55.5512L151.774 57.2457ZM156.221 62.551C157.277 64.8974 157.82 67.6665 157.82 70.8828H159.82C159.82 67.4429 159.239 64.3838 158.045 61.7303L156.221 62.551ZM157.82 70.8828V73.0391H159.82V70.8828H157.82ZM155.344 70.8359C155.344 66.675 154.511 63.3265 152.705 60.9294L151.108 62.1331C152.551 64.0485 153.344 66.9032 153.344 70.8359H155.344ZM152.707 60.9322C150.877 58.4862 148.295 57.2734 145.086 57.2734V59.2734C147.721 59.2734 149.686 60.2326 151.106 62.1303L152.707 60.9322ZM145.086 57.2734C141.945 57.2734 139.401 58.4936 137.561 60.9285L139.157 62.134C140.599 60.2251 142.539 59.2734 145.086 59.2734V57.2734ZM137.561 60.9294C135.763 63.3143 134.9 66.5496 134.852 70.5191L136.851 70.5434C136.897 66.8254 137.705 64.0607 139.158 62.1331L137.561 60.9294ZM134.852 70.5312V73.0391H136.852V70.5312H134.852ZM134.852 73.0391C134.852 77.0888 135.697 80.4077 137.504 82.886L139.121 81.7077C137.646 79.686 136.852 76.8331 136.852 73.0391H134.852ZM137.509 82.8924C139.363 85.3927 141.94 86.6484 145.133 86.6484V84.6484C142.544 84.6484 140.575 83.6698 139.116 81.7014L137.509 82.8924ZM145.133 86.6484C148.317 86.6484 150.877 85.474 152.681 83.0872L151.085 81.8815C149.701 83.7135 147.761 84.6484 145.133 84.6484V86.6484ZM152.683 83.0844C154.453 80.7247 155.295 77.4459 155.344 73.379L153.344 73.3553C153.298 77.1947 152.501 79.994 151.083 81.8844L152.683 83.0844ZM155.344 73.3672V70.8359H153.344V73.3672H155.344ZM178.086 75.1953L178.967 74.7226L178.684 74.1953H178.086V75.1953ZM170.07 75.1953V74.1953H169.07V75.1953H170.07ZM170.07 89V90H171.07V89H170.07ZM165.547 89H164.547V90H165.547V89ZM165.547 54.875V53.875H164.547V54.875H165.547ZM185.703 57.5L185.056 58.2625L185.059 58.2649L185.703 57.5ZM187.086 70.6953L186.279 70.1043L186.275 70.1095L187.086 70.6953ZM182.305 74.2344L181.948 73.3001L180.872 73.7108L181.43 74.7186L182.305 74.2344ZM190.32 88.7188H191.32V88.4605L191.195 88.2346L190.32 88.7188ZM190.32 89V90H191.32V89H190.32ZM185.492 89L184.611 89.4728L184.894 90H185.492V89ZM170.07 71.5156H169.07V72.5156H170.07V71.5156ZM182.305 69.7812L181.648 69.027L181.644 69.0309L182.305 69.7812ZM182.398 60.2891L181.729 61.0324L181.734 61.0365L182.398 60.2891ZM176.961 58.5781L176.968 57.5781H176.961V58.5781ZM170.07 58.5781V57.5781H169.07V58.5781H170.07ZM178.086 74.1953H170.07V76.1953H178.086V74.1953ZM169.07 75.1953V89H171.07V75.1953H169.07ZM170.07 88H165.547V90H170.07V88ZM166.547 89V54.875H164.547V89H166.547ZM165.547 55.875H176.844V53.875H165.547V55.875ZM176.844 55.875C180.549 55.875 183.237 56.7193 185.056 58.2625L186.35 56.7375C184.044 54.7807 180.826 53.875 176.844 53.875V55.875ZM185.059 58.2649C186.86 59.7817 187.82 62.0175 187.82 65.1406H189.82C189.82 61.5762 188.702 58.7183 186.347 56.7351L185.059 58.2649ZM187.82 65.1406C187.82 67.0724 187.299 68.7126 186.279 70.1043L187.893 71.2863C189.185 69.5218 189.82 67.4588 189.82 65.1406H187.82ZM186.275 70.1095C185.263 71.5105 183.836 72.5793 181.948 73.3001L182.661 75.1686C184.867 74.3269 186.628 73.0364 187.896 71.2811L186.275 70.1095ZM181.43 74.7186L189.445 89.2029L191.195 88.2346L183.18 73.7502L181.43 74.7186ZM189.32 88.7188V89H191.32V88.7188H189.32ZM190.32 88H185.492V90H190.32V88ZM186.373 88.5272L178.967 74.7226L177.205 75.6681L184.611 89.4728L186.373 88.5272ZM170.07 72.5156H176.984V70.5156H170.07V72.5156ZM176.984 72.5156C179.393 72.5156 181.424 71.8894 182.966 70.5316L181.644 69.0309C180.56 69.9856 179.045 70.5156 176.984 70.5156V72.5156ZM182.961 70.5355C184.531 69.1689 185.297 67.3348 185.297 65.1406H183.297C183.297 66.8215 182.735 68.0811 181.648 69.027L182.961 70.5355ZM185.297 65.1406C185.297 62.8213 184.593 60.9015 183.063 59.5417L181.734 61.0365C182.736 61.9267 183.297 63.2412 183.297 65.1406H185.297ZM183.067 59.5458C181.573 58.2005 179.487 57.5947 176.968 57.5781L176.954 59.5781C179.185 59.5928 180.724 60.1277 181.729 61.0324L183.067 59.5458ZM176.961 57.5781H170.07V59.5781H176.961V57.5781ZM169.07 58.5781V71.5156H171.07V58.5781H169.07ZM199.672 85.3203H198.672V86.3203H199.672V85.3203ZM215.844 85.3203H216.844V84.3203H215.844V85.3203ZM215.844 89V90H216.844V89H215.844ZM195.148 89H194.148V90H195.148V89ZM195.148 54.875V53.875H194.148V54.875H195.148ZM199.672 54.875H200.672V53.875H199.672V54.875ZM199.672 86.3203H215.844V84.3203H199.672V86.3203ZM214.844 85.3203V89H216.844V85.3203H214.844ZM215.844 88H195.148V90H215.844V88ZM196.148 89V54.875H194.148V89H196.148ZM195.148 55.875H199.672V53.875H195.148V55.875ZM198.672 54.875V85.3203H200.672V54.875H198.672ZM220.977 89H219.977V90H220.977V89ZM220.977 54.875V53.875H219.977V54.875H220.977ZM243.758 62.4453L242.867 62.8994L242.869 62.904L243.758 62.4453ZM245.656 70.7891L246.656 70.7891L246.656 70.7841L245.656 70.7891ZM243.781 81.4297L242.893 80.971L242.89 80.9756L243.781 81.4297ZM238.461 87.0078L237.972 86.1356L237.969 86.137L238.461 87.0078ZM230.422 89L230.422 90.0001L230.432 89.9999L230.422 89ZM225.477 58.5781V57.5781H224.477V58.5781H225.477ZM225.477 85.3203H224.477V86.3203H225.477V85.3203ZM238.297 82.0859L237.553 81.4176L237.55 81.4206L238.297 82.0859ZM238.461 61.8594L237.695 62.5028L237.701 62.5088L238.461 61.8594ZM230.727 58.5781L230.736 57.5781H230.727V58.5781ZM221.977 89V54.875H219.977V89H221.977ZM220.977 55.875H230.609V53.875H220.977V55.875ZM230.609 55.875C233.426 55.875 235.875 56.496 237.986 57.7105L238.983 55.977C236.531 54.5665 233.73 53.875 230.609 53.875V55.875ZM237.986 57.7105C240.093 58.9231 241.717 60.6442 242.867 62.8994L244.649 61.9912C243.329 59.4027 241.438 57.3894 238.983 55.977L237.986 57.7105ZM242.869 62.904C244.036 65.1655 244.641 67.7872 244.656 70.794L246.656 70.7841C246.64 67.5097 245.979 64.5688 244.646 61.9867L242.869 62.904ZM244.656 70.7891V72.9688H246.656V70.7891H244.656ZM244.656 72.9688C244.656 76.0567 244.057 78.7145 242.893 80.971L244.67 81.8883C246.005 79.3011 246.656 76.3183 246.656 72.9688H244.656ZM242.89 80.9756C241.743 83.2262 240.107 84.9379 237.972 86.1356L238.95 87.88C241.439 86.484 243.351 84.4769 244.672 81.8838L242.89 80.9756ZM237.969 86.137C235.842 87.3384 233.333 87.9702 230.412 88.0001L230.432 89.9999C233.636 89.9673 236.487 89.271 238.953 87.8786L237.969 86.137ZM230.422 88H220.977V90H230.422V88ZM224.477 58.5781V85.3203H226.477V58.5781H224.477ZM225.477 86.3203H230.211V84.3203H225.477V86.3203ZM230.211 86.3203C233.902 86.3203 236.894 85.163 239.043 82.7513L237.55 81.4206C235.856 83.3214 233.457 84.3203 230.211 84.3203V86.3203ZM239.041 82.7543C241.196 80.3555 242.203 77.0132 242.203 72.875H240.203C240.203 76.7055 239.273 79.5039 237.553 81.4176L239.041 82.7543ZM242.203 72.875V70.8828H240.203V72.875H242.203ZM242.203 70.8828C242.203 66.8592 241.254 63.5897 239.221 61.21L237.701 62.5088C239.324 64.4103 240.203 67.1564 240.203 70.8828H242.203ZM239.226 61.2159C237.19 58.7938 234.311 57.6116 230.736 57.5782L230.717 59.5781C233.829 59.6072 236.106 60.6124 237.695 62.5028L239.226 61.2159ZM230.727 57.5781H225.477V59.5781H230.727V57.5781ZM277.578 78.1719L278.571 78.288L278.702 77.1719H277.578V78.1719ZM273.57 86.5391L274.228 87.292L274.229 87.2916L273.57 86.5391ZM254.938 85.1328L254.171 85.775L254.173 85.7775L254.938 85.1328ZM252.992 61.8828L252.089 61.4545L252.086 61.4593L252.992 61.8828ZM257.82 56.3516L258.345 57.2028L258.35 57.1999L257.82 56.3516ZM273.758 57.4531L273.077 58.1859L273.08 58.1885L273.758 57.4531ZM277.578 65.8438V66.8438H278.684L278.573 65.7438L277.578 65.8438ZM273.055 65.8438L272.065 65.986L272.188 66.8438H273.055V65.8438ZM270.5 59.9375L269.815 60.6662L269.82 60.6703L270.5 59.9375ZM258.266 61.2969L257.474 60.6858L257.471 60.6894L258.266 61.2969ZM270.383 84.1016L271.029 84.8646L271.03 84.8639L270.383 84.1016ZM273.055 78.1719V77.1719H272.198L272.067 78.0182L273.055 78.1719ZM276.585 78.0558C276.185 81.4746 274.937 84.0146 272.912 85.7865L274.229 87.2916C276.704 85.126 278.127 82.0879 278.571 78.288L276.585 78.0558ZM272.912 85.7862C270.903 87.5427 268.181 88.4688 264.641 88.4688V90.4688C268.538 90.4688 271.769 89.4417 274.228 87.292L272.912 85.7862ZM264.641 88.4688C260.882 88.4688 257.936 87.137 255.702 84.4882L254.173 85.7775C256.814 88.9099 260.337 90.4688 264.641 90.4688V88.4688ZM255.704 84.4906C253.472 81.8261 252.305 78.2083 252.305 73.5312H250.305C250.305 78.5417 251.56 82.6583 254.171 85.775L255.704 84.4906ZM252.305 73.5312V70.25H250.305V73.5312H252.305ZM252.305 70.25C252.305 67.1965 252.846 64.5568 253.898 62.3063L252.086 61.4593C250.888 64.0214 250.305 66.9598 250.305 70.25H252.305ZM253.896 62.3112C254.961 60.063 256.446 58.3735 258.345 57.2028L257.296 55.5003C255.038 56.8922 253.304 58.8901 252.089 61.4545L253.896 62.3112ZM258.35 57.1999C260.251 56.0134 262.469 55.4062 265.039 55.4062V53.4062C262.14 53.4062 259.546 54.096 257.291 55.5032L258.35 57.1999ZM265.039 55.4062C268.469 55.4062 271.113 56.3617 273.077 58.1859L274.438 56.7203C272.028 54.4821 268.859 53.4062 265.039 53.4062V55.4062ZM273.08 58.1885C275.052 60.0052 276.243 62.5557 276.583 65.9437L278.573 65.7438C278.195 61.9756 276.839 58.9323 274.435 56.7177L273.08 58.1885ZM277.578 64.8438H273.055V66.8438H277.578V64.8438ZM274.045 65.7015C273.638 62.8712 272.729 60.6431 271.18 59.2047L269.82 60.6703C270.896 61.6694 271.69 63.3788 272.065 65.986L274.045 65.7015ZM271.185 59.2088C269.65 57.7663 267.554 57.1094 265.039 57.1094V59.1094C267.211 59.1094 268.756 59.6712 269.815 60.6662L271.185 59.2088ZM265.039 57.1094C261.88 57.1094 259.319 58.2961 257.474 60.6858L259.057 61.908C260.493 60.0477 262.448 59.1094 265.039 59.1094V57.1094ZM257.471 60.6894C255.663 63.0535 254.828 66.3241 254.828 70.3672H256.828C256.828 66.5665 257.618 63.7903 259.06 61.9043L257.471 60.6894ZM254.828 70.3672V73.6719H256.828V70.3672H254.828ZM254.828 73.6719C254.828 77.5048 255.628 80.6753 257.332 83.0852L258.965 81.9304C257.575 79.9653 256.828 77.2452 256.828 73.6719H254.828ZM257.332 83.0852C259.075 85.5495 261.549 86.7891 264.641 86.7891V84.7891C262.169 84.7891 260.316 83.8411 258.965 81.9304L257.332 83.0852ZM264.641 86.7891C267.276 86.7891 269.456 86.1974 271.029 84.8646L269.736 83.3385C268.654 84.2558 267.005 84.7891 264.641 84.7891V86.7891ZM271.03 84.8639C272.64 83.4971 273.59 81.2384 274.043 78.3256L272.067 78.0182C271.645 80.7304 270.813 82.4248 269.736 83.3392L271.03 84.8639ZM273.055 79.1719H277.578V77.1719H273.055V79.1719ZM302.586 80.0938L303.525 79.7502L303.285 79.0938H302.586V80.0938ZM288.289 80.0938V79.0938H287.587L287.348 79.7546L288.289 80.0938ZM285.078 89V90H285.781L286.019 89.3392L285.078 89ZM280.438 89L279.503 88.6433L278.985 90H280.438V89ZM293.469 54.875V53.875H292.78L292.535 54.5183L293.469 54.875ZM297.406 54.875L298.34 54.5177L298.094 53.875H297.406V54.875ZM310.461 89V90H311.914L311.395 88.6427L310.461 89ZM305.844 89L304.905 89.3435L305.145 90H305.844V89ZM289.648 76.3906L288.708 76.0497L288.222 77.3906H289.648V76.3906ZM301.25 76.3906V77.3906H302.678L302.19 76.0484L301.25 76.3906ZM295.438 60.4297L296.377 60.0875L295.436 57.5021L294.497 60.0887L295.438 60.4297ZM302.586 79.0938H288.289V81.0938H302.586V79.0938ZM287.348 79.7546L284.137 88.6608L286.019 89.3392L289.23 80.4329L287.348 79.7546ZM285.078 88H280.438V90H285.078V88ZM281.372 89.3567L294.403 55.2317L292.535 54.5183L279.503 88.6433L281.372 89.3567ZM293.469 55.875H297.406V53.875H293.469V55.875ZM296.472 55.2323L309.527 89.3573L311.395 88.6427L298.34 54.5177L296.472 55.2323ZM310.461 88H305.844V90H310.461V88ZM306.783 88.6565L303.525 79.7502L301.647 80.4373L304.905 89.3435L306.783 88.6565ZM289.648 77.3906H301.25V75.3906H289.648V77.3906ZM302.19 76.0484L296.377 60.0875L294.498 60.7719L300.31 76.7328L302.19 76.0484ZM294.497 60.0887L288.708 76.0497L290.589 76.7316L296.378 60.7707L294.497 60.0887ZM335.586 58.5781V59.5781H336.586V58.5781H335.586ZM324.617 58.5781V57.5781H323.617V58.5781H324.617ZM324.617 89V90H325.617V89H324.617ZM320.141 89H319.141V90H320.141V89ZM320.141 58.5781H321.141V57.5781H320.141V58.5781ZM309.195 58.5781H308.195V59.5781H309.195V58.5781ZM309.195 54.875V53.875H308.195V54.875H309.195ZM335.586 54.875H336.586V53.875H335.586V54.875ZM335.586 57.5781H324.617V59.5781H335.586V57.5781ZM323.617 58.5781V89H325.617V58.5781H323.617ZM324.617 88H320.141V90H324.617V88ZM321.141 89V58.5781H319.141V89H321.141ZM320.141 57.5781H309.195V59.5781H320.141V57.5781ZM310.195 58.5781V54.875H308.195V58.5781H310.195ZM309.195 55.875H335.586V53.875H309.195V55.875ZM334.586 54.875V58.5781H336.586V54.875H334.586Z" fill="#C6C6C6"/>
<line x1="92" y1="39" x2="319" y2="39" stroke="white" stroke-width="4"/>
</svg>
